<?xml version="1.0" encoding="UTF-8"?>
<svg id="Layer_2" data-name="Layer 2" xmlns="http://www.w3.org/2000/svg" viewBox="0 0 664.05 686.78">
  <defs>
    <style>
      .cls-1, .cls-2, .cls-3 {
        fill-rule: evenodd;
      }

      .cls-1, .cls-4 {
        fill: #2f368f;
      }

      .cls-5, .cls-3 {
        fill: #fff;
      }

      .cls-2 {
        fill: #231f20;
      }

      .cls-6 {
        fill: #2e3092;
      }
    </style>
  </defs>
  <g id="Layer_1-2" data-name="Layer 1">
    <g>
      <g>
        <g>
          <polygon class="cls-1" points="499.1 477.33 164.93 477.33 164.93 14.8 499.1 14.8 499.1 477.33 499.1 477.33"/>
          <path class="cls-3" d="M361.17,29.83s-21.23-.76-18.78,27.84c0,0,1.49,8.09,3.38,8.28,0,0,6.76,11.29.56,16.19-17.68,13.94-37.17,43.66-41.86,63.97,0,0-7.04,27.1-8.03,47.7,0,0-2.67,22.01-6.9,29.77,0,0-7.97,14.97-2.4,30.62.85,2.38,1.56,10.61,5.82,7.25,0,0,.94,3.95,3.21,3.95,0,0,1.12,0,1.87-1.5,0,0,6.58,7.15,8.46,1.5-2.48-4.48-7.53-3.39-3.58-17.41,0,0,4.79-8.04,6.34-11.85,0,0,2.4,5.23,2.54,8.05,0,0-1.13,8.03-.29,8.88,0,0,.93,4.03,5.03,1.41,1.79-16.08,2.14-24.84-5.73-39.09-4.04-21.98,15.51-50.82,24.8-69.43,0,0,.7-.57,1.41,1.13,0,0,11.72,16.83,10.43,31.61,0,0-29.87,31.89-6.48,61.09-5.05,16.33-6.78,29.86-6.29,47.28,0,0-2.72,19.89-8.5,22.72,0,0-5.92,6.06-11.98,9.31,0,0-10.72,6.21-14.52,22.16,0,0-8.25,38.78-26.91,51.23,0,0-3.1,6.21,0,11.14,0,0,3.95,5.08,8.45,5.37,0,0,10.72-3.68,18.88,9.16,0,0,13.96,8.06,18.33,7.07,0,0,11.1-2.13,2.16-7.44,0,0-13.33-9.93-15.6-25.76,0,0-5.26-9.22,8.27-24.27,21.32-20.21,45.02-47.31,55.61-75.59,1.56-4.28,3.56-11.75,5.92-15.8,3.37,4.08,6.42,8.4,9.86,12.41,23.72,26.22,6.28,35.52,15.79,64.07,0,0,6.77,22.15,10.85,28.08,5.57,10.87,11.18,20.81,12.41,33.02,0,0,.29,14.25.7,17.64,0,0,.85,7.05,8.88,4.24,0,0,8.45-6.22,25.5-4.52,0,0,7.99-2.2,9.87-4.09,0,0,2.53-.14,3.79.56,0,0,2.41,0,1.66-2.63,0,0,3.85.84,3.19-2.25,0,0,3.66,1.41,3.28-1.97,0,0,3.67.74,2.73-2.83,0,0,2.17.29,1.88-2.25,0,0-.09-5.45-4.23-4.9-24.87,2.78-44.21.66-46.27-27.1,0-24.15-11.8-50.85-8.64-73.76,0,0,1.63-7.17-2.78-12.88,0,0-5.04-16.65-6.35-20.4-6-20.33-19.69-32.62-31.93-49.28,0,0-2.94-11.42.64-16.97,0,0,1.63-8.81,2.77-10.93,0,0,1.8-12.56,1.31-15.17,0,0,17.12,7.84,29.18,20.4l3.09,4.73s8.17,13.54,11.24,16.64c0,0,8.97,9.14,9.79,9.62,0,0,3.42,1.97,3.42-2.85,0,0,3.59,2.69,4.73,1.22,0,0,1.47-1.63-1.47-5.72,0,0,4.72,3.43,7.16,2.61,0,0,1.14-1.14-.49-3.75,0,0-5.86-4.25-8.15-6.86,0,0,8.96,7.84,12.38,6.37,0,0,2.12-.98.33-3.92,0,0-7.33-5.21-8.63-6.69,0,0-2.24-3.25-3.37-5.79,0,0,3.1,3.96,7.23,4.71,0,0,3.48-1.13-.09-4.52-8.32-7.5-11.72-13.03-24.42-12.42,0,0-28.6-25.39-36.08-41.2-.44-6.48,4.34-19.82.19-28.78,0,0-19.01-32.23-20.38-38.01,0,0-3.56-10.52,7.59-8.94,0,0,5.96.39,1.69-8.56,0,0,.71-1.13.57-1.7.38.03,1.19-.95,1.26-1.55l-.13-3.39s3.16-.54,3.8-1.69c1.86-2.28-4.28-9.71-5.51-12,0,0,.54-1.78,1.32-2.07.42-12.63-11.69-22.51-24.8-20.51h0Z"/>
          <polygon class="cls-3" points="289.11 259.99 330.79 214.77 289.11 259.99 289.11 259.99"/>
          <rect class="cls-5" x="278.76" y="235.6" width="64.1" height="1.62" transform="translate(-73.79 304.04) rotate(-47.23)"/>
          <polygon class="cls-3" points="456.83 226.99 387.09 195.75 456.83 226.99 456.83 226.99"/>
          <polygon class="cls-5" points="456.49 227.72 386.76 196.49 387.41 195.01 457.16 226.24 456.49 227.72"/>
          <path class="cls-3" d="M457.46,226.46s-4.54,26.91-40.88,49.19l-.37-1.14s34.1-20.96,39.93-48.06h1.32Z"/>
          <path class="cls-1" d="M384.02,287.97s18.66-4.36,32.19-13.45l.37,1.14s-10.5,7.5-31.92,13.13l-.64-.82h0Z"/>
          <path class="cls-3" d="M367.68,290.28s9.17-.82,16.34-2.32l.64.82-17.46,2.8.48-1.3h0Z"/>
          <path class="cls-1" d="M334.59,287.61s13.18,4.77,34.99,2.48l-.49,1.44s-19.94,2.54-34.68-2.77l.18-1.15h0Z"/>
          <rect class="cls-5" x="358.62" y="29.34" width="126.64" height="1.62"/>
          <path class="cls-3" d="M289.11,259.99s12.1,16.64,45.3,28.77l.18-1.15s-28.95-9.92-44.71-28.17l-.77.55h0Z"/>
          <rect class="cls-4" x="357.81" y="29.99" width="1.62" height="152.37"/>
          <polygon class="cls-2" points="387.13 195.77 358.68 182.58 387.13 195.77 387.13 195.77"/>
          <rect class="cls-4" x="372.93" y="172.94" width="1.62" height="33.21" transform="translate(44.79 449.18) rotate(-65.18)"/>
          <polygon class="cls-2" points="358.64 182.25 332.51 212.81 358.64 182.25 358.64 182.25"/>
          <polygon class="cls-4" points="333.13 213.34 331.89 212.29 358.02 181.72 359.26 182.77 333.13 213.34"/>
          <rect class="cls-5" x="483.87" y="30.19" width="1.62" height="396.12"/>
          <polygon class="cls-3" points="484.74 425.2 424.37 306.27 484.74 425.2 484.74 425.2"/>
          <rect class="cls-5" x="453.76" y="299.05" width="1.62" height="133.37" transform="translate(-116.31 245.36) rotate(-26.91)"/>
          <path class="cls-3" d="M491.92,424.07s-115.06,35.36-193.65-8.64c0,0-80.47-36.1-106.04-119.2,0,0-68.82-205.31,166.4-266.23,0,0-123.11,10.15-175.78,131.43-44.77,128.04,35.89,217.72,45.48,229,0,0,77.09,104.91,263.59,59.22v-25.58h0Z"/>
        </g>
        <path class="cls-6" d="M511.75,492.14H152.28V0h359.46v492.14ZM155.53,488.9h352.99V3.24H155.53v485.67Z"/>
      </g>
      <g>
        <path class="cls-6" d="M69.43,536.47c0-1.97-.31-6.82-.62-8.59-1.97-4.54-11.58-12-24.93-12-18.83,0-30.74,13.66-30.74,29.8,0,20.18,16.66,37.26,38.5,37.26,7.87,0,17.17-1.25,24.52-5.6l-1.44,4.44c-2.38,1.98-12.84,6.22-29.08,6.22-3.83,0-15.1-.42-23.48-4.55-13.46-6.63-21.42-18.41-21.42-31.66,0-14.27,7.23-24.83,16.34-30.93,10.76-7.24,20.38-8.59,30.83-8.59,9.12,0,18.72,1.86,21.63,2.69.61-1.34,1.86-7.97,2.17-9.22l2.38-.51c-1.56,11.38-2.18,22.14-2.28,31.97l-2.38-.73Z"/>
        <path class="cls-6" d="M97.67,543.3c0-3.31-.11-22.77-.51-26.18-1.87-.42-8.28-1.25-10.87-1.45l-.51-2.18c1.75.21,11.59.41,18.21.41s15.2-.2,16.85-.41l-.51,2.18c-2.9.2-8.39,1.03-10.04,1.45-.42,2.79-.83,15-.83,23.9v5.07c2.59,0,38.81.42,42.96-.31v-4.76c0-8.07,0-21.32-.63-23.9-1.76-.42-7.25-1.25-10.24-1.45l-.53-2.18c1.76.21,11.4.41,17.79.41,6.73,0,15.42-.2,17.28-.41l-.62,2.18c-2.06.2-7.55,1.03-10.55,1.45-.51,2.06-.73,23.38-.73,26.18v7.23c0,12,.22,29.07.93,32.6,2.06.42,8.38,1.35,10.45,1.44l.51,2.18c-1.97-.21-12.52-.41-17.38-.41-4.46,0-14.18.2-17.7.41l.53-2.18c1.55-.09,8.38-1.02,10.24-1.44.63-3.52.63-16.66.63-27.63v-6c-4.87.11-41.5,2.07-42.96,2.38v3.62c0,10.56.42,23.81.83,27.63,2.79.62,7.97,1.35,10.04,1.44l.51,2.18c-2.17-.21-12.41-.41-16.85-.41-5.39,0-15.11.2-18.21.41l.61-2.18c2.38-.09,8.8-1.02,10.77-1.44.4-4.86.51-22.24.51-30.11v-9.73Z"/>
        <path class="cls-6" d="M196.69,540.5c0-9.31-.21-20.49-.52-23.38-2.18-.53-5.38-1.04-8.18-1.45l-.31-2.18c2.9.21,9.52.41,17.5.41,4.76,0,12.72-.2,15.3-.41l-.51,2.18c-2.79.3-7.45.82-10.76,1.45-.31,1.76-.52,14.89-.52,23.8v13.75c0,21.94,9.32,29.39,20.5,29.39,6.82,0,11.37-1.66,14.9-4.96,5.58-5.29,6.94-14.4,6.94-26.81v-9.51c0-3.32-.12-22.25-.54-25.66-2.37-.42-8.58-1.25-11.26-1.45l-.73-2.18c2.59.21,10.34.41,16.77.41,5.38,0,10.85-.2,12.62-.41l-.63,2.18c-1.75.41-4.54.82-7.23,1.45-.31,1.55-.52,14.48-.52,17.28v4.97c0,4.03.21,9,.21,12.72,0,11.7-2.18,21.63-10.15,28.66-4.74,4.25-11.37,7.25-21.62,7.25-21.42,0-31.24-13.25-31.24-31.35v-16.14Z"/>
        <path class="cls-6" d="M353.45,572.37c0,3.84,0,9.32.2,12.21-6,1.77-19.45,3.42-26.48,3.42s-18.74-.63-27.43-4.97c-13.04-6.51-20.58-18.21-20.58-31.14,0-14.58,7.23-25.04,16.34-31.24,9.43-6.42,19.87-8.38,30.43-8.38,8.9,0,19.76,1.35,23.17,2.58.42-1.65,1.55-7.44,1.86-9.62l2.37-.52c-.61,4.04-1.75,22.35-1.43,31.97l-2.38-1.25c-.22-3.51-.73-7.13-1.13-9.5-2.69-3.21-10.05-10.04-26.91-10.04-18,0-30.01,13.34-30.01,29.9s14.39,38.49,36.74,38.49c2.68,0,8.78-.41,13.13-2.69.21-1.55.31-5.07.31-10.24v-5.48c0-3.21-.1-6.42-.42-8.27-2.06-.22-8.47-.73-10.45-1.15l-.62-2.17c5.39.2,13.35.32,16.97.32,4.97,0,15-.11,16.24-.32l-.51,2.17c-.93.11-6.73.62-9.01,1.15-.31,1.74-.41,8.58-.41,11.48v3.3Z"/>
        <path class="cls-6" d="M385.92,543.3c0-3.31-.09-22.77-.5-26.18-1.87-.42-8.28-1.25-10.87-1.45l-.52-2.18c1.76.21,11.58.41,18.21.41s15.22-.2,16.87-.41l-.51,2.18c-2.91.2-8.38,1.03-10.04,1.45-.42,2.79-.83,15-.83,23.9v5.07c2.59,0,38.79.42,42.94-.31v-4.76c0-8.07,0-21.32-.63-23.9-1.74-.42-7.23-1.25-10.24-1.45l-.52-2.18c1.78.21,11.39.41,17.81.41,6.73,0,15.41-.2,17.28-.41l-.62,2.18c-2.07.2-7.56,1.03-10.55,1.45-.52,2.06-.74,23.38-.74,26.18v7.23c0,12,.22,29.07.93,32.6,2.09.42,8.39,1.35,10.46,1.44l.51,2.18c-1.97-.21-12.53-.41-17.39-.41-4.45,0-14.17.2-17.7.41l.52-2.18c1.56-.09,8.38-1.02,10.24-1.44.63-3.52.63-16.66.63-27.63v-6c-4.87.11-41.49,2.07-42.94,2.38v3.62c0,10.56.42,23.81.83,27.63,2.79.62,7.96,1.35,10.04,1.44l.51,2.18c-2.18-.21-12.42-.41-16.87-.41-5.38,0-15.1.2-18.21.41l.62-2.18c2.38-.09,8.8-1.02,10.78-1.44.41-4.86.5-22.24.5-30.11v-9.73Z"/>
        <path class="cls-6" d="M504.1,543.61c0-7.65-.21-22.96-.54-25.35-16.54,0-23.99,2.59-26.79,4.34-.82,2.28-1.44,6.32-2.06,9.73l-2.38.62c.42-4.96,1.66-17.9,1.56-26.08l2.38.41c.1,1.35.3,4.56.61,6.73,1.67.31,19.45,1.03,33.43,1.03,14.99,0,32.9-.72,34.55-1.03.4-1.25,1.04-4.45,1.44-6.42l2.59-.41c-.62,2.38-2.99,23.59-3.3,26.7l-2.38-.63c.2-4.14.31-8.38.2-10.66-2.59-2.07-16.97-4.34-27.01-4.34-.31,2.78-.53,17.9-.53,25.35v4.66c0,9.1.22,26.6.53,34.87,1.97.31,11.38,1.24,13.35,1.44l.42,2.18c-2.48-.21-14.59-.41-20.27-.41-4.66,0-17.08.2-20.08.41l.53-2.18c2.38-.2,10.76-1.13,13.23-1.44.32-8.07.54-25.87.54-34.87v-4.66Z"/>
        <path class="cls-6" d="M591.21,584.58c3.62-.3,7.23-.71,10.44-1.44-1.87-5.39-9.2-27.31-10.87-30.32-3.61,0-20.07.73-23.9,1.36-.62,1.44-6.21,20.99-7.23,28.96,2.59.73,6,1.14,8.9,1.44l.41,2.18c-3.21-.21-12.63-.41-15.61-.41-2.7,0-9.63.2-12.01.41l.31-2.18c3-.3,6.11-.82,8.9-1.44,3.73-6.53,24.31-62.18,25.77-66.11-2.28-.63-5.7-1.04-8.18-1.35l-.1-2.18c3.09.21,11.68.41,13.44.41,4.34,0,14.68-.2,17.69-.41l-.31,2.18c-2.69.3-5.48.72-7.86,1.35,1.24,4.54,6.94,20.8,10.86,31.65,2.91,7.97,9.33,25.36,14.08,34.46,3,.62,5.99,1.03,9.11,1.44l.31,2.18c-1.23-.21-11.69-.41-17.17-.41-2.99,0-14.68.2-17.48.41l.53-2.18ZM579.52,518.78h-.22c-3.21,9.22-9.93,27.12-10.98,30.52l21.74.42c-2.28-6.84-8.78-25.25-10.55-30.94Z"/>
        <path class="cls-6" d="M651.41,550.34c0,13.46.11,30.73.52,32.8,2.6.62,8.8,1.24,10.87,1.44l.51,2.18c-2.28-.21-13.04-.41-19.45-.41-3.52,0-13.03.2-16.14.41l.42-2.18c1.75-.09,8.8-1.02,10.96-1.44.41-4.36.51-23.49.51-33.63v-6.1c0-3.41-.11-22.76-.51-26.28-2.07-.42-8.9-1.25-10.86-1.45l-.52-2.18c1.97.21,11.48.41,19.65.41,5.27,0,14.17-.2,15.93-.41l-.51,2.18c-2.07.2-7.15,1.03-10.87,1.45-.42,2.06-.52,14.07-.52,26.8v6.41Z"/>
      </g>
      <g>
        <path class="cls-6" d="M10.34,637.83c0-2.88-.09-19.79-.45-22.76-1.62-.36-7.2-1.08-9.45-1.26l-.44-1.88c1.53.18,10.07.36,15.83.36s13.23-.18,14.67-.36l-.45,1.88c-2.52.19-7.29.9-8.72,1.26-.36,2.44-.73,13.05-.73,20.79v4.41c2.25,0,33.74.35,37.34-.27v-4.14c0-7.02,0-18.53-.54-20.79-1.54-.36-6.29-1.08-8.92-1.26l-.44-1.88c1.53.18,9.89.36,15.47.36,5.85,0,13.41-.18,15.03-.36l-.55,1.88c-1.8.19-6.57.9-9.18,1.26-.44,1.8-.63,20.34-.63,22.76v6.29c0,10.44.19,25.28.81,28.35,1.81.36,7.29,1.17,9.09,1.25l.45,1.89c-1.72-.17-10.89-.35-15.11-.35-3.87,0-12.32.18-15.39.35l.44-1.89c1.36-.08,7.29-.89,8.92-1.25.54-3.07.54-14.49.54-24.03v-5.21c-4.23.09-36.08,1.8-37.34,2.07v3.14c0,9.18.37,20.7.73,24.03,2.42.54,6.92,1.17,8.72,1.25l.45,1.89c-1.9-.17-10.8-.35-14.67-.35-4.67,0-13.13.18-15.83.35l.54-1.89c2.06-.08,7.64-.89,9.36-1.25.36-4.23.45-19.34.45-26.18v-8.46Z"/>
        <path class="cls-6" d="M97.58,640.26c0-8.09-.27-22.41-.63-25.2-1.72-.36-7.2-.99-9.37-1.26l-.35-1.88c2.16.09,5.13.18,8.09.27,2.97,0,5.94.09,7.91.09,2.88,0,24.03,0,26.46-.63.26-1.07.54-2.6.71-4.22l2.07-.36c-.45,1.89-1.62,15.83-1.8,18.62l-1.99-.63c0-.63.1-4.68,0-6.48-1.61-2.61-15.47-3.78-20.24-3.78-.27,1.26-.63,18.62-.63,23.94v1.79c7.74,0,16.46-.63,18.63-1.45.44-1.34.71-2.6.89-3.86l1.9-.18c-.27,1.62-1.9,13.94-2.35,16.83l-1.7-.73c.08-1.89.18-4.23.18-6.03-2.79-1.44-9.81-1.98-17.54-1.98v1.79c0,5.49.36,25.11.63,27.72,9,0,17.45-.72,21.6-3.06.99-3.15,1.44-5.94,1.98-7.91l2.06-.54c-.63,2.62-2.6,16.29-2.97,20.79l-1.88-.36c0-2.42,0-4.05-.1-5.49-2.61-.45-22.57-.8-28.25-.8-3.06,0-10.17.18-13.67.35l.44-1.89c1.44-.08,6.84-.61,9.27-1.25.36-1.62.63-18.18.63-28.07v-4.14Z"/>
        <path class="cls-6" d="M178.67,673.72c3.15-.26,6.29-.61,9.08-1.25-1.62-4.68-8.01-23.76-9.44-26.36-3.16,0-17.46.63-20.79,1.17-.54,1.26-5.4,18.25-6.3,25.19,2.25.63,5.22.99,7.75,1.25l.36,1.89c-2.79-.17-10.98-.35-13.59-.35-2.34,0-8.37.18-10.44.35l.27-1.89c2.61-.26,5.3-.7,7.73-1.25,3.24-5.67,21.14-54.08,22.41-57.49-1.98-.54-4.96-.9-7.12-1.17l-.08-1.88c2.69.18,10.17.36,11.69.36,3.78,0,12.78-.18,15.39-.36l-.27,1.88c-2.34.27-4.77.64-6.83,1.17,1.07,3.96,6.02,18.09,9.44,27.53,2.53,6.93,8.1,22.04,12.24,29.96,2.61.54,5.22.9,7.91,1.25l.27,1.89c-1.08-.17-10.17-.35-14.93-.35-2.61,0-12.78.18-15.21.35l.45-1.89ZM168.51,616.51h-.18c-2.79,8.01-8.64,23.57-9.55,26.54l18.9.36c-1.98-5.93-7.65-21.95-9.18-26.9Z"/>
        <path class="cls-6" d="M219.02,637.02c0-5.13-.09-19.07-.45-21.95-1.99-.36-7.29-1.08-9.63-1.26l-.27-1.88c2.25.18,10.08.36,15.57.36,6.03,0,14.76-.18,16.56-.36l-.44,1.88c-2.16.19-7.02.9-10.62,1.26-.37,2.88-.45,15.83-.45,23.03v3.24c0,11.79.08,29.06.45,31.04,10.7,0,18.08-2.33,21.5-4.59,1.36-3.06,2.51-7.74,3.24-10.25l2.16-.36c-1.8,8.01-3.5,17.54-4.77,29.61l-2.07-.45c0-1.26.45-8.1.45-10.52-1.98-.19-21.42-.54-26.27-.54-4.51,0-12.78.18-15.3.35l.37-1.89c1.35-.08,7.64-.61,9.53-1.25.36-3.96.45-21.33.45-30.23v-5.22Z"/>
        <path class="cls-6" d="M282.2,638.1c0-6.66-.18-19.98-.45-22.04-14.4,0-20.87,2.25-23.3,3.78-.72,1.99-1.26,5.49-1.8,8.46l-2.06.54c.35-4.32,1.43-15.57,1.35-22.67l2.06.35c.1,1.17.27,3.97.55,5.86,1.43.26,16.91.89,29.06.89,13.05,0,28.6-.63,30.05-.89.36-1.08.91-3.87,1.26-5.58l2.25-.36c-.55,2.07-2.61,20.51-2.88,23.22l-2.07-.54c.19-3.6.27-7.29.19-9.27-2.25-1.79-14.76-3.78-23.49-3.78-.26,2.43-.44,15.57-.44,22.04v4.05c0,7.92.18,23.13.44,30.33,1.72.27,9.9,1.08,11.61,1.25l.36,1.89c-2.16-.17-12.68-.35-17.63-.35-4.05,0-14.85.18-17.46.35l.45-1.89c2.07-.17,9.36-.98,11.51-1.25.27-7.03.45-22.5.45-30.33v-4.05Z"/>
        <path class="cls-6" d="M335.59,637.83c0-2.88-.09-19.79-.45-22.76-1.62-.36-7.2-1.08-9.45-1.26l-.45-1.88c1.54.18,10.07.36,15.84.36s13.23-.18,14.66-.36l-.44,1.88c-2.53.19-7.29.9-8.74,1.26-.36,2.44-.72,13.05-.72,20.79v4.41c2.25,0,33.74.35,37.34-.27v-4.14c0-7.02,0-18.53-.54-20.79-1.54-.36-6.3-1.08-8.92-1.26l-.45-1.88c1.54.18,9.9.36,15.48.36s13.41-.18,15.02-.36l-.54,1.88c-1.8.19-6.57.9-9.18,1.26-.45,1.8-.63,20.34-.63,22.76v6.29c0,10.44.18,25.28.81,28.35,1.8.36,7.28,1.17,9.08,1.25l.45,1.89c-1.7-.17-10.88-.35-15.11-.35-3.87,0-12.32.18-15.39.35l.45-1.89c1.35-.08,7.29-.89,8.92-1.25.54-3.07.54-14.49.54-24.03v-5.21c-4.23.09-36.08,1.8-37.34,2.07v3.14c0,9.18.36,20.7.72,24.03,2.43.54,6.92,1.17,8.74,1.25l.44,1.89c-1.88-.17-10.8-.35-14.66-.35-4.68,0-13.13.18-15.84.35l.55-1.89c2.06-.08,7.64-.89,9.36-1.25.36-4.23.45-19.34.45-26.18v-8.46Z"/>
        <path class="cls-6" d="M471.49,631.89c0-1.71-.26-5.94-.55-7.47-1.7-3.96-10.07-10.43-21.67-10.43-16.38,0-26.73,11.88-26.73,25.92,0,17.54,14.49,32.39,33.47,32.39,6.84,0,14.93-1.08,21.33-4.87l-1.26,3.87c-2.07,1.72-11.16,5.39-25.28,5.39-3.34,0-13.15-.35-20.43-3.95-11.69-5.76-18.63-16.02-18.63-27.53,0-12.42,6.3-21.59,14.22-26.9,9.36-6.29,17.74-7.47,26.81-7.47,7.93,0,16.29,1.62,18.81,2.34.54-1.16,1.62-6.92,1.9-8l2.07-.46c-1.36,9.89-1.89,19.25-1.99,27.8l-2.06-.63Z"/>
        <path class="cls-6" d="M519.84,673.72c3.15-.26,6.3-.61,9.09-1.25-1.62-4.68-8.01-23.76-9.45-26.36-3.15,0-17.45.63-20.79,1.17-.54,1.26-5.4,18.25-6.29,25.19,2.25.63,5.22.99,7.74,1.25l.36,1.89c-2.79-.17-10.98-.35-13.59-.35-2.34,0-8.37.18-10.44.35l.27-1.89c2.61-.26,5.32-.7,7.75-1.25,3.23-5.67,21.13-54.08,22.4-57.49-1.98-.54-4.95-.9-7.1-1.17l-.09-1.88c2.69.18,10.17.36,11.7.36,3.78,0,12.76-.18,15.39-.36l-.27,1.88c-2.35.27-4.77.64-6.84,1.17,1.08,3.96,6.03,18.09,9.45,27.53,2.52,6.93,8.09,22.04,12.23,29.96,2.61.54,5.22.9,7.93,1.25l.27,1.89c-1.08-.17-10.18-.35-14.95-.35-2.61,0-12.78.18-15.21.35l.45-1.89ZM509.68,616.51h-.18c-2.79,8.01-8.63,23.57-9.53,26.54l18.89.36c-1.98-5.93-7.64-21.95-9.18-26.9Z"/>
        <path class="cls-6" d="M560.09,637.29c0-3.25-.08-20.51-.45-22.23-1.53-.36-7.64-.9-9.62-1.08l-.27-1.89,19.44-.08c8.55,0,19.25.08,25.36,2.51,4.78,1.89,7.74,5.3,7.74,10.25,0,5.67-5.76,13.15-12.68,17.01.99,2.25,15.47,25.82,24.84,35.71l-3.97.64c-6.29-2.88-30.23-30.51-31.67-32.39-3.42.26-7.1.54-8.63.54v2.33c0,5.85.18,19.71.45,23.85,1.53.45,7.46,1.08,9.44,1.25l.36,1.89c-2.25-.17-11.33-.35-15.48-.35-3.68,0-13.12.18-15.2.35l.36-1.89c1.26-.08,7.02-.61,9.53-1.25.37-2.62.45-20.25.45-29.69v-5.49ZM570.17,643.5c3.23,0,7.1-.27,10.98-1.71,3.86-1.44,10.25-5.58,10.25-14.49,0-5.76-5.22-12.78-20.77-12.78-.27,3.68-.45,19.79-.45,26.19v2.78Z"/>
        <path class="cls-6" d="M627.51,640.26c0-8.09-.26-22.41-.62-25.2-1.72-.36-7.2-.99-9.37-1.26l-.36-1.88c2.16.09,5.14.18,8.1.27,2.97,0,5.94.09,7.91.09,2.88,0,24.02,0,26.45-.63.27-1.07.54-2.6.73-4.22l2.06-.36c-.44,1.89-1.61,15.83-1.8,18.62l-1.98-.63c0-.63.09-4.68,0-6.48-1.62-2.61-15.47-3.78-20.24-3.78-.27,1.26-.63,18.62-.63,23.94v1.79c7.74,0,16.46-.63,18.62-1.45.45-1.34.73-2.6.91-3.86l1.88-.18c-.26,1.62-1.88,13.94-2.34,16.83l-1.7-.73c.08-1.89.18-4.23.18-6.03-2.79-1.44-9.81-1.98-17.54-1.98v1.79c0,5.49.36,25.11.63,27.72,9,0,17.45-.72,21.6-3.06.98-3.15,1.43-5.94,1.98-7.91l2.06-.54c-.63,2.62-2.61,16.29-2.97,20.79l-1.89-.36c0-2.42,0-4.05-.08-5.49-2.61-.45-22.59-.8-28.26-.8-3.05,0-10.15.18-13.67.35l.45-1.89c1.44-.08,6.84-.61,9.27-1.25.36-1.62.62-18.18.62-28.07v-4.14Z"/>
      </g>
    </g>
  </g>
</svg>